<svg width="186" height="44" viewBox="0 0 186 44" fill="none" xmlns="http://www.w3.org/2000/svg">
<rect x="1" y="1" width="184" height="42" stroke="white" stroke-width="2"/>
<path d="M11.9629 33V11.7891H15.7715V20.7832H25.6445V11.7891H29.4824V33H25.6445V23.9766H15.7715V33H11.9629ZM52.334 22.3945C52.334 29.25 48.1738 33.293 42.6074 33.293C37.041 33.293 32.8809 29.2207 32.8809 22.3945C32.8809 15.5391 37.041 11.4961 42.6074 11.4961C48.1738 11.4961 52.334 15.5391 52.334 22.3945ZM48.4961 22.3945C48.4961 17.5605 46.0645 14.9238 42.6074 14.9238C39.1504 14.9238 36.7188 17.5605 36.7188 22.3945C36.7188 27.2285 39.1504 29.8652 42.6074 29.8652C46.0645 29.8652 48.4961 27.2285 48.4961 22.3945ZM55.7324 33V11.7891H63.7012C68.5645 11.7891 71.1719 14.5137 71.1719 18.5566C71.1719 21.4424 69.8535 23.5811 67.3633 24.5918L71.9336 33H67.6855L63.5254 25.2363H59.541V33H55.7324ZM59.541 22.043H63.1152C65.9863 22.043 67.2754 20.8125 67.2754 18.5566C67.2754 16.3008 65.9863 14.9824 63.1152 14.9824H59.541V22.043ZM73.5156 14.9824V11.7891H90.4199V14.9824H83.8867V33H80.0781V14.9824H73.5156ZM93.4082 33V11.7891H107.002V14.9824H97.2168V20.7832H106.064V23.9766H97.2168V33H93.4082ZM129.15 22.3945C129.15 29.25 124.99 33.293 119.424 33.293C113.857 33.293 109.697 29.2207 109.697 22.3945C109.697 15.5391 113.857 11.4961 119.424 11.4961C124.99 11.4961 129.15 15.5391 129.15 22.3945ZM125.312 22.3945C125.312 17.5605 122.881 14.9238 119.424 14.9238C115.967 14.9238 113.535 17.5605 113.535 22.3945C113.535 27.2285 115.967 29.8652 119.424 29.8652C122.881 29.8652 125.312 27.2285 125.312 22.3945ZM132.549 33V11.7891H136.357V29.7773H145.732V33H132.549ZM152.588 11.7891V33H148.779V11.7891H152.588ZM175.469 22.3945C175.469 29.25 171.309 33.293 165.742 33.293C160.176 33.293 156.016 29.2207 156.016 22.3945C156.016 15.5391 160.176 11.4961 165.742 11.4961C171.309 11.4961 175.469 15.5391 175.469 22.3945ZM171.631 22.3945C171.631 17.5605 169.199 14.9238 165.742 14.9238C162.285 14.9238 159.854 17.5605 159.854 22.3945C159.854 27.2285 162.285 29.8652 165.742 29.8652C169.199 29.8652 171.631 27.2285 171.631 22.3945Z" fill="white"/>
</svg>
